<mxfile host="app.diagrams.net" modified="2023-04-26T10:13:30.678Z" agent="Mozilla/5.0 (Windows NT 10.0; Win64; x64) AppleWebKit/537.36 (KHTML, like Gecko) Chrome/112.0.0.0 Safari/537.36" etag="mg_B4Jz1_Hq5G3Okd_BA" version="21.2.2" type="onedrive">
  <diagram name="Pagina-1" id="KyUpmAaPla-pPhMfO0Sg">
    <mxGraphModel grid="1" page="1" gridSize="10" guides="1" tooltips="1" connect="1" arrows="1" fold="1" pageScale="1" pageWidth="827" pageHeight="1169" math="0" shadow="0">
      <root>
        <mxCell id="0" />
        <mxCell id="1" parent="0" />
        <mxCell id="NzyhIIRaUT_5iBKF9mRI-1" value="" style="rounded=0;whiteSpace=wrap;html=1;" vertex="1" parent="1">
          <mxGeometry x="40" y="680" width="720" height="550" as="geometry" />
        </mxCell>
        <mxCell id="NzyhIIRaUT_5iBKF9mRI-2" value="" style="rounded=0;whiteSpace=wrap;html=1;fillColor=#000000;" vertex="1" parent="1">
          <mxGeometry x="40" y="680" width="720" height="60" as="geometry" />
        </mxCell>
        <mxCell id="NzyhIIRaUT_5iBKF9mRI-3" value="logo IL NOSTRO SITO" style="text;html=1;strokeColor=none;fillColor=none;align=center;verticalAlign=middle;whiteSpace=wrap;rounded=0;fontColor=#FFFFFF;fontSize=19;fontStyle=0;fontFamily=Verdana;" vertex="1" parent="1">
          <mxGeometry x="50" y="687.5" width="220" height="45" as="geometry" />
        </mxCell>
        <mxCell id="NzyhIIRaUT_5iBKF9mRI-4" value="Home Catalogo Login" style="text;html=1;strokeColor=none;fillColor=none;align=center;verticalAlign=middle;whiteSpace=wrap;rounded=0;fontColor=#FFFFFF;fontSize=14;" vertex="1" parent="1">
          <mxGeometry x="570" y="702.5" width="180" height="30" as="geometry" />
        </mxCell>
        <mxCell id="NzyhIIRaUT_5iBKF9mRI-5" value="&#xa;&#xa;&#xa;" style="rounded=0;whiteSpace=wrap;html=1;fillColor=#000000;" vertex="1" parent="1">
          <mxGeometry x="40" y="1169" width="720" height="60" as="geometry" />
        </mxCell>
        <mxCell id="NzyhIIRaUT_5iBKF9mRI-6" value="Tutti i diritti sno riservati al IL NOSTRO SITO" style="text;html=1;strokeColor=none;fillColor=none;align=center;verticalAlign=middle;whiteSpace=wrap;rounded=0;fontColor=#FFFFFF;" vertex="1" parent="1">
          <mxGeometry x="40" y="1200" width="270" height="30" as="geometry" />
        </mxCell>
        <mxCell id="NzyhIIRaUT_5iBKF9mRI-7" value="Contattaci&lt;br&gt;&amp;nbsp; &amp;nbsp; &amp;nbsp; &amp;nbsp; &amp;nbsp; +39 123456" style="text;html=1;strokeColor=none;fillColor=none;align=center;verticalAlign=middle;whiteSpace=wrap;rounded=0;fontColor=#FFFFFF;" vertex="1" parent="1">
          <mxGeometry x="650" y="1170" width="100" height="60" as="geometry" />
        </mxCell>
        <mxCell id="NzyhIIRaUT_5iBKF9mRI-8" value="" style="shape=mxgraph.signs.tech.telephone_3;html=1;pointerEvents=1;fillColor=#FFFFFF;strokeColor=none;verticalLabelPosition=bottom;verticalAlign=top;align=center;sketch=0;fontColor=#FFFFFF;" vertex="1" parent="1">
          <mxGeometry x="660" y="1200" width="10" height="10" as="geometry" />
        </mxCell>
        <mxCell id="NzyhIIRaUT_5iBKF9mRI-9" style="edgeStyle=orthogonalEdgeStyle;rounded=0;orthogonalLoop=1;jettySize=auto;html=1;exitX=0.5;exitY=1;exitDx=0;exitDy=0;" edge="1" parent="1" source="NzyhIIRaUT_5iBKF9mRI-1" target="NzyhIIRaUT_5iBKF9mRI-1">
          <mxGeometry relative="1" as="geometry" />
        </mxCell>
        <mxCell id="NzyhIIRaUT_5iBKF9mRI-10" value="Statistiche" style="text;html=1;strokeColor=none;fillColor=none;align=center;verticalAlign=middle;whiteSpace=wrap;rounded=0;fontSize=24;fontStyle=1" vertex="1" parent="1">
          <mxGeometry x="275" y="770" width="250" height="30" as="geometry" />
        </mxCell>
        <mxCell id="NzyhIIRaUT_5iBKF9mRI-16" value="" style="rounded=0;whiteSpace=wrap;html=1;" vertex="1" parent="1">
          <mxGeometry x="85" y="890" width="85" height="110" as="geometry" />
        </mxCell>
        <mxCell id="NzyhIIRaUT_5iBKF9mRI-17" value="Coupon emessi" style="rounded=1;whiteSpace=wrap;html=1;" vertex="1" parent="1">
          <mxGeometry x="92.5" y="960" width="70" height="27.5" as="geometry" />
        </mxCell>
        <mxCell id="NzyhIIRaUT_5iBKF9mRI-18" value="" style="whiteSpace=wrap;html=1;aspect=fixed;" vertex="1" parent="1">
          <mxGeometry x="120" y="900" width="20" height="20" as="geometry" />
        </mxCell>
        <mxCell id="NzyhIIRaUT_5iBKF9mRI-19" value="NIKE&lt;br&gt;nome offerta" style="text;html=1;strokeColor=none;fillColor=none;align=center;verticalAlign=middle;whiteSpace=wrap;rounded=0;" vertex="1" parent="1">
          <mxGeometry x="92.5" y="930" width="70" height="30" as="geometry" />
        </mxCell>
        <mxCell id="NzyhIIRaUT_5iBKF9mRI-20" value="" style="line;strokeWidth=2;direction=south;html=1;rotation=90;dashed=1;dashPattern=1 1;" vertex="1" parent="1">
          <mxGeometry x="270" y="865" width="10" height="160" as="geometry" />
        </mxCell>
        <mxCell id="NzyhIIRaUT_5iBKF9mRI-22" value="Numero totale di coupon emessi" style="text;html=1;strokeColor=none;fillColor=none;align=center;verticalAlign=middle;whiteSpace=wrap;rounded=0;" vertex="1" parent="1">
          <mxGeometry x="80" y="810" width="120" height="30" as="geometry" />
        </mxCell>
        <mxCell id="NzyhIIRaUT_5iBKF9mRI-23" value="" style="line;strokeWidth=1;direction=south;html=1;rotation=90;" vertex="1" parent="1">
          <mxGeometry x="290" y="760" width="10" height="160" as="geometry" />
        </mxCell>
        <mxCell id="NzyhIIRaUT_5iBKF9mRI-29" value="Clienti" style="text;html=1;strokeColor=none;fillColor=none;align=center;verticalAlign=middle;whiteSpace=wrap;rounded=0;" vertex="1" parent="1">
          <mxGeometry x="102.5" y="1040" width="60" height="30" as="geometry" />
        </mxCell>
        <mxCell id="NzyhIIRaUT_5iBKF9mRI-30" value="" style="line;strokeWidth=2;direction=south;html=1;perimeter=backbonePerimeter;points=[];outlineConnect=0;dashed=1;dashPattern=1 1;" vertex="1" parent="1">
          <mxGeometry x="125" y="1080" width="10" height="50" as="geometry" />
        </mxCell>
        <mxCell id="NzyhIIRaUT_5iBKF9mRI-31" value="Coupon erogati" style="text;html=1;strokeColor=none;fillColor=none;align=center;verticalAlign=middle;whiteSpace=wrap;rounded=0;" vertex="1" parent="1">
          <mxGeometry x="250" y="1040" width="120" height="30" as="geometry" />
        </mxCell>
        <mxCell id="NzyhIIRaUT_5iBKF9mRI-32" value="" style="line;strokeWidth=2;direction=south;html=1;perimeter=backbonePerimeter;points=[];outlineConnect=0;dashed=1;dashPattern=1 1;" vertex="1" parent="1">
          <mxGeometry x="305" y="1080" width="10" height="50" as="geometry" />
        </mxCell>
      </root>
    </mxGraphModel>
  </diagram>
</mxfile>
